{
    "asset" : {
        "generator" : "Khronos glTF Blender I/O v1.1.45",
        "version" : "2.0"
    },
    "scene" : 0,
    "scenes" : [
        {
            "name" : "Scene",
            "nodes" : [
                0
            ]
        }
    ],
    "nodes" : [
        {
            "mesh" : 0,
            "name" : "Rubber Duck",
            "translation" : [
                0,
                0.8166577816009521,
                0
            ]
        }
    ],
    "materials" : [
        {
            "doubleSided" : true,
            "name" : "Rubber Duck Material",
            "pbrMetallicRoughness" : {}
        },
        {
            "doubleSided" : true,
            "name" : "Rubber Duck Eye",
            "pbrMetallicRoughness" : {}
        }
    ],
    "meshes" : [
        {
            "name" : "Cube",
            "primitives" : [
                {
                    "attributes" : {
                        "POSITION" : 0,
                        "NORMAL" : 1,
                        "TEXCOORD_0" : 2,
                        "COLOR_0" : 3
                    },
                    "indices" : 4,
                    "material" : 0
                },
                {
                    "attributes" : {
                        "POSITION" : 5,
                        "NORMAL" : 6,
                        "TEXCOORD_0" : 7,
                        "COLOR_0" : 8
                    },
                    "indices" : 9,
                    "material" : 1
                }
            ]
        }
    ],
    "accessors" : [
        {
            "bufferView" : 0,
            "componentType" : 5126,
            "count" : 1992,
            "max" : [
                1.290856122970581,
                2.788398265838623,
                1.6807351112365723
            ],
            "min" : [
                -1.290856122970581,
                -0.8169001340866089,
                -1.7746756076812744
            ],
            "type" : "VEC3"
        },
        {
            "bufferView" : 1,
            "componentType" : 5126,
            "count" : 1992,
            "type" : "VEC3"
        },
        {
            "bufferView" : 2,
            "componentType" : 5126,
            "count" : 1992,
            "type" : "VEC2"
        },
        {
            "bufferView" : 3,
            "componentType" : 5126,
            "count" : 1992,
            "type" : "VEC4"
        },
        {
            "bufferView" : 4,
            "componentType" : 5123,
            "count" : 1992,
            "type" : "SCALAR"
        },
        {
            "bufferView" : 5,
            "componentType" : 5126,
            "count" : 32,
            "max" : [
                0.5155175924301147,
                2.4432263374328613,
                1.0392720699310303
            ],
            "min" : [
                -0.5155176520347595,
                2.1300907135009766,
                0.7676761150360107
            ],
            "type" : "VEC3"
        },
        {
            "bufferView" : 6,
            "componentType" : 5126,
            "count" : 32,
            "type" : "VEC3"
        },
        {
            "bufferView" : 7,
            "componentType" : 5126,
            "count" : 32,
            "type" : "VEC2"
        },
        {
            "bufferView" : 8,
            "componentType" : 5126,
            "count" : 32,
            "type" : "VEC4"
        },
        {
            "bufferView" : 9,
            "componentType" : 5123,
            "count" : 132,
            "type" : "SCALAR"
        }
    ],
    "bufferViews" : [
        {
            "buffer" : 0,
            "byteLength" : 23904,
            "byteOffset" : 0
        },
        {
            "buffer" : 0,
            "byteLength" : 23904,
            "byteOffset" : 23904
        },
        {
            "buffer" : 0,
            "byteLength" : 15936,
            "byteOffset" : 47808
        },
        {
            "buffer" : 0,
            "byteLength" : 31872,
            "byteOffset" : 63744
        },
        {
            "buffer" : 0,
            "byteLength" : 3984,
            "byteOffset" : 95616
        },
        {
            "buffer" : 0,
            "byteLength" : 384,
            "byteOffset" : 99600
        },
        {
            "buffer" : 0,
            "byteLength" : 384,
            "byteOffset" : 99984
        },
        {
            "buffer" : 0,
            "byteLength" : 256,
            "byteOffset" : 100368
        },
        {
            "buffer" : 0,
            "byteLength" : 512,
            "byteOffset" : 100624
        },
        {
            "buffer" : 0,
            "byteLength" : 264,
            "byteOffset" : 101136
        }
    ],
    "buffers" : [
        {
            "byteLength" : 101400,
            "uri" : "data:application/octet-stream;base64,"
        }
    ]
}
